<?xml version="1.0" standalone="no"?>
<!DOCTYPE svg PUBLIC "-//W3C//DTD SVG 20010904//EN"
 "http://www.w3.org/TR/2001/REC-SVG-20010904/DTD/svg10.dtd">
<svg version="1.0" xmlns="http://www.w3.org/2000/svg"
 width="653.000000pt" height="110.000000pt" viewBox="0 0 653.000000 110.000000"
 preserveAspectRatio="xMidYMid meet">

<g transform="translate(0.000000,110.000000) scale(0.100000,-0.100000)"
fill="#000000" stroke="none">
<path d="M245 113 c14 -21 25 -52 25 -70 0 -23 5 -33 15 -33 10 0 15 10 15 31
0 16 11 47 25 67 16 24 21 38 13 41 -10 3 -31 -17 -42 -43 -3 -6 -14 1 -26 17
-34 43 -56 35 -25 -10z"/>
<path d="M436 85 c-31 -77 -30 -75 -11 -75 8 0 15 7 15 15 0 22 59 20 76 -2 7
-10 16 -15 19 -11 11 11 -41 133 -58 136 -10 2 -23 -18 -41 -63z m57 -5 c4
-15 0 -20 -14 -20 -20 0 -23 8 -13 34 7 20 20 13 27 -14z"/>
<path d="M625 113 c14 -21 25 -52 25 -70 0 -23 5 -33 15 -33 10 0 15 10 15 27
0 14 11 46 25 70 21 35 23 43 10 43 -8 0 -21 -11 -27 -25 -6 -14 -14 -25 -18
-25 -4 0 -15 11 -24 25 -9 14 -23 25 -32 25 -11 0 -9 -9 11 -37z"/>
<path d="M822 98 c-11 -29 -23 -61 -27 -70 -5 -13 -2 -18 9 -18 9 0 16 7 16
15 0 10 10 15 34 15 21 0 36 -6 40 -15 3 -8 12 -15 20 -15 19 0 -36 134 -57
138 -10 2 -22 -15 -35 -50z m51 -18 c4 -15 0 -20 -14 -20 -20 0 -23 8 -13 34
7 20 20 13 27 -14z"/>
<path d="M1020 131 c-15 -30 -2 -50 41 -61 43 -12 49 -24 20 -40 -15 -7 -23
-6 -35 5 -18 18 -39 20 -34 3 16 -47 108 -42 108 6 0 27 -14 41 -52 50 -16 3
-28 13 -28 21 0 18 23 19 50 3 24 -15 37 -4 20 17 -18 22 -77 19 -90 -4z"/>
<path d="M1236 85 c-31 -76 -30 -75 -11 -75 8 0 15 7 15 15 0 22 59 20 76 -2
7 -10 16 -15 19 -11 11 10 -46 138 -60 138 -7 0 -25 -29 -39 -65z m51 -21 c-3
-3 -12 -4 -20 -2 -11 2 -12 9 -5 28 l10 25 11 -23 c5 -12 8 -25 4 -28z"/>
<path d="M1430 80 c0 -54 3 -70 14 -70 10 0 16 14 18 43 l3 42 25 -42 c14 -25
33 -43 43 -43 15 0 17 10 17 70 0 56 -3 70 -15 70 -11 0 -15 -12 -15 -47 l0
-48 -31 48 c-45 68 -59 63 -59 -23z"/>
<path d="M1770 80 l0 -70 44 0 c54 0 76 19 76 66 0 47 -29 74 -80 74 l-40 0 0
-70z m78 41 c14 -9 19 -61 8 -80 -4 -6 -18 -11 -32 -11 -22 0 -24 4 -24 50 0
41 3 50 18 50 9 0 23 -4 30 -9z"/>
<path d="M2021 128 c-5 -13 -17 -42 -26 -66 -18 -45 -12 -69 9 -39 16 21 64
23 72 2 6 -13 34 -22 34 -10 0 3 -12 34 -26 70 -27 68 -48 82 -63 43z m39 -55
c0 -7 -9 -13 -20 -13 -23 0 -24 4 -9 32 9 17 13 18 20 7 5 -8 9 -20 9 -26z"/>
<path d="M2200 80 c0 -54 3 -70 14 -70 8 0 16 12 18 27 4 38 24 39 43 4 8 -17
22 -31 30 -31 20 0 19 5 -10 48 l-25 36 27 28 c38 40 7 36 -34 -4 l-33 -32 0
32 c0 22 -5 32 -15 32 -12 0 -15 -14 -15 -70z"/>
<path d="M2419 80 c20 -88 43 -96 61 -19 14 57 20 56 35 -4 17 -67 39 -60 59
19 9 36 15 69 12 71 -11 11 -25 -10 -31 -47 -9 -52 -20 -51 -31 2 -13 61 -36
61 -56 1 l-15 -48 -13 48 c-7 26 -18 47 -25 47 -9 0 -8 -17 4 -70z"/>
<path d="M2694 115 c-7 -19 -21 -51 -28 -70 -13 -31 -13 -35 0 -35 8 0 17 7
20 15 8 20 63 20 70 0 4 -8 13 -15 21 -15 10 0 13 5 8 18 -4 9 -16 41 -27 70
-12 28 -27 52 -35 52 -8 0 -21 -16 -29 -35z m40 -21 c10 -26 7 -34 -15 -34
-15 0 -19 4 -15 16 3 9 6 20 6 25 0 15 17 10 24 -7z"/>
<path d="M2880 80 c0 -56 3 -70 15 -70 10 0 15 10 15 30 0 27 3 30 30 30 27 0
30 -3 30 -30 0 -17 5 -30 10 -30 6 0 10 30 10 70 0 40 -4 70 -10 70 -5 0 -10
-13 -10 -30 0 -27 -3 -30 -30 -30 -27 0 -30 3 -30 30 0 20 -5 30 -15 30 -12 0
-15 -14 -15 -70z"/>
<path d="M3220 80 c0 -40 4 -70 10 -70 6 0 10 30 10 70 0 40 -4 70 -10 70 -6
0 -10 -30 -10 -70z"/>
<path d="M3350 135 c-19 -23 -7 -49 28 -61 47 -15 59 -30 34 -43 -14 -8 -24
-7 -38 4 -25 19 -34 19 -34 0 0 -20 44 -37 76 -29 45 11 40 84 -5 84 -10 0
-26 6 -37 14 -18 14 -18 15 -1 22 10 3 29 1 43 -6 30 -16 41 -8 19 14 -20 20
-68 21 -85 1z"/>
<path d="M3550 80 l0 -70 51 0 c31 0 48 4 44 10 -3 6 -22 10 -41 10 l-34 0 0
60 c0 33 -4 60 -10 60 -6 0 -10 -30 -10 -70z"/>
<path d="M3769 123 c-29 -74 -39 -107 -33 -112 3 -3 11 2 18 12 17 22 76 24
76 2 0 -8 7 -15 15 -15 19 0 20 -1 -11 75 -28 70 -48 82 -65 38z m38 -59 c-3
-3 -12 -4 -20 -2 -11 2 -12 9 -5 28 l10 25 11 -23 c5 -12 8 -25 4 -28z"/>
<path d="M3950 81 c0 -56 3 -71 15 -71 11 0 15 12 16 48 l1 47 12 -45 c16 -60
42 -66 51 -11 10 57 25 61 25 7 0 -25 5 -46 10 -46 6 0 10 30 10 70 0 63 -2
70 -20 70 -15 0 -22 -11 -31 -45 -13 -51 -19 -50 -34 3 -8 27 -17 38 -33 40
-21 3 -22 0 -22 -67z"/>
<path d="M4190 80 c0 -56 3 -70 15 -70 12 0 15 14 15 70 0 56 -3 70 -15 70
-12 0 -15 -14 -15 -70z"/>
<path d="M4328 80 c-18 -50 -22 -70 -13 -70 7 0 15 7 19 15 7 20 63 19 74 -1
5 -9 14 -15 19 -13 16 6 -39 139 -57 139 -10 0 -25 -25 -42 -70z m52 21 c0 -5
3 -16 6 -25 4 -12 0 -16 -16 -16 -16 0 -20 4 -16 16 3 9 6 20 6 25 0 5 5 9 10
9 6 0 10 -4 10 -9z"/>
<path d="M4530 80 c0 -68 15 -98 22 -43 2 23 8 29 36 31 30 3 32 1 32 -27 0
-17 5 -31 10 -31 6 0 10 30 10 70 0 40 -4 70 -10 70 -5 0 -10 -14 -10 -31 0
-28 -2 -30 -32 -27 -28 2 -34 8 -36 31 -7 55 -22 25 -22 -43z"/>
<path d="M4870 80 c0 -81 19 -97 21 -17 l1 52 16 -52 c8 -29 21 -53 28 -53 7
0 19 21 27 48 l15 47 1 -47 c1 -36 5 -48 16 -48 13 0 15 12 13 68 -3 60 -5 67
-25 70 -18 3 -22 -3 -28 -37 -10 -57 -23 -60 -36 -6 -8 33 -16 45 -30 45 -17
0 -19 -8 -19 -70z"/>
<path d="M5134 115 c-7 -19 -21 -51 -28 -70 -13 -31 -13 -35 0 -35 8 0 17 7
20 15 8 20 63 20 70 0 4 -8 13 -15 21 -15 10 0 13 5 8 18 -4 9 -16 41 -27 70
-12 28 -27 52 -35 52 -8 0 -21 -16 -29 -35z m36 -14 c0 -5 3 -16 6 -25 4 -12
0 -16 -16 -16 -16 0 -20 4 -16 16 3 9 6 20 6 25 0 5 5 9 10 9 6 0 10 -4 10 -9z"/>
<path d="M5320 80 l0 -70 50 0 c28 0 50 5 50 10 0 6 -16 10 -35 10 l-35 0 0
60 c0 47 -3 60 -15 60 -12 0 -15 -14 -15 -70z"/>
<path d="M5527 83 c-15 -41 -21 -69 -15 -72 6 -2 15 4 20 13 11 20 64 21 72 1
3 -8 12 -15 20 -15 20 0 -34 134 -56 138 -11 2 -23 -17 -41 -65z m53 18 c0 -5
3 -16 6 -25 4 -12 0 -16 -15 -16 -22 0 -25 8 -15 34 7 17 24 22 24 7z"/>
<path d="M5700 145 c0 -3 11 -23 25 -45 14 -22 25 -51 25 -65 0 -14 5 -25 10
-25 6 0 10 12 10 28 0 15 11 44 25 64 29 42 30 48 12 48 -8 0 -19 -11 -25 -25
-6 -14 -15 -25 -20 -25 -5 0 -15 11 -22 25 -11 21 -40 36 -40 20z"/>
<path d="M5920 135 c-19 -23 -7 -49 30 -61 37 -12 50 -32 29 -45 -9 -5 -23 -2
-37 7 -26 17 -38 13 -29 -9 9 -23 56 -30 83 -12 37 24 26 75 -16 75 -9 0 -25
6 -36 14 -18 14 -18 15 -1 22 10 3 29 1 43 -6 30 -16 41 -8 19 14 -20 20 -68
21 -85 1z"/>
<path d="M6110 80 c0 -56 3 -70 15 -70 12 0 15 14 15 70 0 56 -3 70 -15 70
-12 0 -15 -14 -15 -70z"/>
<path d="M6273 133 c-3 -10 -14 -40 -25 -66 -22 -58 -22 -57 -3 -57 8 0 15 7
15 15 0 22 59 20 76 -2 26 -37 26 -1 -1 62 -28 64 -50 81 -62 48z m34 -69 c-3
-3 -12 -4 -20 -2 -11 2 -12 9 -5 28 l10 25 11 -23 c5 -12 8 -25 4 -28z"/>
</g>
</svg>
